# xmcd
#
# Track frame offsets:
#	150
#	15557
#	35530
#	53591
#	67471
#	85184
#	103886
#	117169
#	131374
#	147282
#	173510
#
# Disc length: 2813 seconds
#
# Revision: 2
# Processed by: cddbd v1.5.2PL0 Copyright (c) Steve Scherf et al.
# Submitted via: audiograbber 1.83.01
#
DISCID=920afb0b
DTITLE=Shooter Jennings - Put The O Back in Country
DYEAR=2005
DGENRE=Rock
TTITLE0=Put The O Back In Country
TTITLE1=4th of July 
TTITLE2=Lonesome Blues
TTITLE3=Solid Country Gold
TTITLE4=Busted in Baylor County
TTITLE5=Sweet Savannah
TTITLE6=Steady At The Wheel
TTITLE7=Manifesto no. 1
TTITLE8=The Letter
TTITLE9=Southern Comfort
TTITLE10=Daddy's Farm
EXTD=
EXTT0=
EXTT1=
EXTT2=
EXTT3=
EXTT4=
EXTT5=
EXTT6=
EXTT7=
EXTT8=
EXTT9=
EXTT10=
PLAYORDER=
